<?xml version="1.0" encoding="UTF-8"?>
<svg xmlns="http://www.w3.org/2000/svg" xmlns:xlink="http://www.w3.org/1999/xlink" width="16px" height="16px" viewBox="0 0 16 16" version="1.1">
<g id="surface1">
<path style=" stroke:none;fill-rule:evenodd;fill:rgb(0%,0%,0%);fill-opacity:1;" d="M 13.136719 3.804688 C 13.398438 3.542969 13.398438 3.121094 13.136719 2.863281 C 12.878906 2.601562 12.457031 2.601562 12.195312 2.863281 L 9.355469 5.703125 C 8.957031 5.46875 8.496094 5.332031 8 5.332031 C 6.527344 5.332031 5.332031 6.527344 5.332031 8 C 5.332031 8.496094 5.46875 8.957031 5.703125 9.355469 L 2.863281 12.195312 C 2.601562 12.457031 2.601562 12.878906 2.863281 13.136719 C 3.121094 13.398438 3.542969 13.398438 3.804688 13.136719 L 6.644531 10.296875 C 7.042969 10.53125 7.503906 10.667969 8 10.667969 C 9.472656 10.667969 10.667969 9.472656 10.667969 8 C 10.667969 7.503906 10.53125 7.042969 10.296875 6.644531 Z M 8.34375 6.710938 C 8.234375 6.683594 8.121094 6.667969 8 6.667969 C 7.261719 6.667969 6.667969 7.261719 6.667969 8 C 6.667969 8.121094 6.683594 8.234375 6.710938 8.34375 Z M 7.65625 9.289062 L 9.289062 7.65625 C 9.316406 7.765625 9.332031 7.878906 9.332031 8 C 9.332031 8.738281 8.738281 9.332031 8 9.332031 C 7.878906 9.332031 7.765625 9.316406 7.65625 9.289062 Z M 10.511719 3.214844 C 9.753906 2.878906 8.910156 2.667969 8 2.667969 C 6.097656 2.667969 4.503906 3.597656 3.332031 4.605469 C 2.15625 5.613281 1.339844 6.757812 0.976562 7.3125 C 0.703125 7.730469 0.703125 8.269531 0.976562 8.6875 C 1.28125 9.15625 1.910156 10.042969 2.808594 10.914062 L 3.75 9.972656 C 2.96875 9.214844 2.40625 8.433594 2.121094 8 C 2.460938 7.484375 3.183594 6.488281 4.199219 5.617188 C 5.25 4.714844 6.542969 4 8 4 C 8.515625 4 9.007812 4.089844 9.480469 4.246094 Z M 8 12 C 7.484375 12 6.992188 11.910156 6.519531 11.753906 L 5.488281 12.785156 C 6.246094 13.121094 7.089844 13.332031 8 13.332031 C 9.902344 13.332031 11.496094 12.402344 12.667969 11.394531 C 13.84375 10.386719 14.660156 9.242188 15.023438 8.6875 C 15.296875 8.269531 15.296875 7.730469 15.023438 7.3125 C 14.71875 6.84375 14.089844 5.957031 13.191406 5.085938 L 12.25 6.027344 C 13.03125 6.785156 13.59375 7.566406 13.878906 8 C 13.539062 8.515625 12.816406 9.511719 11.800781 10.382812 C 10.75 11.285156 9.457031 12 8 12 Z M 8 12 "/>
</g>
</svg>
