<?xml version="1.0" encoding="UTF-8"?>
<svg xmlns="http://www.w3.org/2000/svg" xmlns:xlink="http://www.w3.org/1999/xlink" width="16px" height="16px" viewBox="0 0 16 16" version="1.1">
<g id="surface1">
<path style=" stroke:none;fill-rule:evenodd;fill:rgb(0%,0%,0%);fill-opacity:1;" d="M 4.199219 10.382812 C 3.183594 9.511719 2.460938 8.515625 2.121094 8 C 2.460938 7.484375 3.183594 6.488281 4.199219 5.617188 C 5.25 4.714844 6.542969 4 8 4 C 9.457031 4 10.75 4.714844 11.800781 5.617188 C 12.816406 6.488281 13.539062 7.484375 13.878906 8 C 13.539062 8.515625 12.816406 9.511719 11.800781 10.382812 C 10.75 11.285156 9.457031 12 8 12 C 6.542969 12 5.25 11.285156 4.199219 10.382812 Z M 8 2.667969 C 6.097656 2.667969 4.503906 3.597656 3.332031 4.605469 C 2.15625 5.613281 1.339844 6.757812 0.976562 7.3125 C 0.703125 7.730469 0.703125 8.269531 0.976562 8.6875 C 1.339844 9.242188 2.15625 10.386719 3.332031 11.394531 C 4.503906 12.402344 6.097656 13.332031 8 13.332031 C 9.902344 13.332031 11.496094 12.402344 12.667969 11.394531 C 13.84375 10.386719 14.660156 9.242188 15.023438 8.6875 C 15.296875 8.269531 15.296875 7.730469 15.023438 7.3125 C 14.660156 6.757812 13.84375 5.613281 12.667969 4.605469 C 11.496094 3.597656 9.902344 2.667969 8 2.667969 Z M 6.667969 8 C 6.667969 7.261719 7.261719 6.667969 8 6.667969 C 8.738281 6.667969 9.332031 7.261719 9.332031 8 C 9.332031 8.738281 8.738281 9.332031 8 9.332031 C 7.261719 9.332031 6.667969 8.738281 6.667969 8 Z M 8 5.332031 C 6.527344 5.332031 5.332031 6.527344 5.332031 8 C 5.332031 9.472656 6.527344 10.667969 8 10.667969 C 9.472656 10.667969 10.667969 9.472656 10.667969 8 C 10.667969 6.527344 9.472656 5.332031 8 5.332031 Z M 8 5.332031 "/>
</g>
</svg>
