<?xml version="1.0" encoding="UTF-8"?>
<svg xmlns="http://www.w3.org/2000/svg" xmlns:xlink="http://www.w3.org/1999/xlink" width="16px" height="16px" viewBox="0 0 16 16" version="1.1">
<g id="surface1">
<path style=" stroke:none;fill-rule:evenodd;fill:rgb(5.882353%,5.882353%,5.882353%);fill-opacity:1;" d="M 2.792969 7.585938 C 2.6875 7.839844 2.667969 7.96875 2.667969 8 L 2.667969 13.335938 C 2.667969 13.703125 2.964844 14 3.332031 14 L 5.332031 14 L 5.332031 10 C 5.332031 9.261719 5.929688 8.667969 6.667969 8.667969 L 9.332031 8.667969 C 10.070312 8.667969 10.667969 9.261719 10.667969 10 L 10.667969 14 L 12.667969 14 C 13.035156 14 13.332031 13.703125 13.332031 13.335938 L 13.332031 8 C 13.332031 7.96875 13.3125 7.839844 13.207031 7.585938 C 13.109375 7.351562 12.960938 7.0625 12.769531 6.734375 C 12.382812 6.082031 11.84375 5.320312 11.238281 4.59375 C 10.632812 3.867188 9.976562 3.191406 9.367188 2.710938 C 9.0625 2.46875 8.78125 2.285156 8.535156 2.164062 C 8.285156 2.039062 8.109375 2 8 2 C 7.890625 2 7.714844 2.039062 7.464844 2.164062 C 7.21875 2.285156 6.9375 2.46875 6.632812 2.710938 C 6.023438 3.191406 5.367188 3.867188 4.761719 4.59375 C 4.15625 5.320312 3.617188 6.082031 3.230469 6.734375 C 3.039062 7.0625 2.890625 7.351562 2.792969 7.585938 Z M 6.871094 0.96875 C 7.222656 0.792969 7.609375 0.667969 8 0.667969 C 8.390625 0.667969 8.777344 0.792969 9.128906 0.96875 C 9.484375 1.144531 9.84375 1.386719 10.195312 1.664062 C 10.898438 2.222656 11.617188 2.96875 12.261719 3.738281 C 12.90625 4.511719 13.492188 5.335938 13.917969 6.058594 C 14.132812 6.417969 14.3125 6.765625 14.441406 7.074219 C 14.5625 7.367188 14.667969 7.699219 14.667969 8 L 14.667969 13.335938 C 14.667969 14.441406 13.769531 15.332031 12.667969 15.332031 L 10.667969 15.332031 C 9.929688 15.332031 9.332031 14.738281 9.332031 14 L 9.332031 10 L 6.667969 10 L 6.667969 14 C 6.667969 14.738281 6.070312 15.332031 5.332031 15.332031 L 3.332031 15.332031 C 2.230469 15.332031 1.332031 14.441406 1.332031 13.335938 L 1.332031 8 C 1.332031 7.699219 1.4375 7.367188 1.558594 7.074219 C 1.6875 6.765625 1.867188 6.417969 2.082031 6.058594 C 2.507812 5.335938 3.09375 4.511719 3.738281 3.738281 C 4.382812 2.96875 5.101562 2.222656 5.804688 1.664062 C 6.15625 1.386719 6.515625 1.144531 6.871094 0.96875 Z M 6.871094 0.96875 "/>
</g>
</svg>
