<?xml version="1.0" encoding="UTF-8"?>
<svg xmlns="http://www.w3.org/2000/svg" xmlns:xlink="http://www.w3.org/1999/xlink" width="16px" height="16px" viewBox="0 0 16 16" version="1.1">
<g id="surface1">
<path style=" stroke:none;fill-rule:nonzero;fill:rgb(0%,0%,0%);fill-opacity:1;" d="M 8.667969 1.332031 C 6.824219 1.332031 5.332031 2.824219 5.332031 4.667969 C 5.332031 5.035156 5.632812 5.332031 6 5.332031 C 6.367188 5.332031 6.667969 5.035156 6.667969 4.667969 C 6.667969 3.5625 7.5625 2.667969 8.667969 2.667969 L 11.332031 2.667969 C 12.4375 2.667969 13.332031 3.5625 13.332031 4.667969 L 13.332031 11.332031 C 13.332031 12.4375 12.4375 13.332031 11.332031 13.332031 L 8.667969 13.332031 C 7.5625 13.332031 6.667969 12.4375 6.667969 11.332031 C 6.667969 10.964844 6.367188 10.667969 6 10.667969 C 5.632812 10.667969 5.332031 10.964844 5.332031 11.332031 C 5.332031 13.175781 6.824219 14.667969 8.667969 14.667969 L 11.332031 14.667969 C 13.175781 14.667969 14.667969 13.175781 14.667969 11.332031 L 14.667969 4.667969 C 14.667969 2.824219 13.175781 1.332031 11.332031 1.332031 Z M 8.667969 1.332031 "/>
<path style=" stroke:none;fill-rule:nonzero;fill:rgb(0%,0%,0%);fill-opacity:1;" d="M 2 7.332031 C 1.632812 7.332031 1.332031 7.632812 1.332031 8 C 1.332031 8.367188 1.632812 8.667969 2 8.667969 L 7.519531 8.667969 C 7.460938 8.738281 7.40625 8.8125 7.351562 8.878906 C 7.1875 9.085938 7.050781 9.265625 6.953125 9.394531 C 6.902344 9.460938 6.863281 9.511719 6.835938 9.550781 L 6.804688 9.59375 L 6.796875 9.605469 L 6.792969 9.609375 C 6.792969 9.609375 6.792969 9.609375 7.332031 10 L 6.792969 9.609375 C 6.578125 9.90625 6.644531 10.324219 6.941406 10.539062 C 7.238281 10.753906 7.65625 10.691406 7.871094 10.390625 L 7.875 10.390625 L 7.882812 10.378906 L 7.910156 10.34375 C 7.933594 10.308594 7.96875 10.261719 8.015625 10.199219 C 8.109375 10.074219 8.242188 9.902344 8.394531 9.707031 C 8.710938 9.3125 9.109375 8.835938 9.472656 8.472656 L 9.941406 8 L 9.472656 7.527344 C 9.109375 7.164062 8.710938 6.6875 8.394531 6.292969 C 8.242188 6.097656 8.109375 5.925781 8.015625 5.800781 C 7.96875 5.738281 7.933594 5.691406 7.910156 5.65625 L 7.882812 5.621094 L 7.875 5.609375 L 7.871094 5.609375 C 7.65625 5.3125 7.238281 5.246094 6.941406 5.460938 C 6.644531 5.675781 6.578125 6.09375 6.792969 6.390625 L 7.332031 6 C 6.792969 6.390625 6.792969 6.390625 6.792969 6.390625 L 6.796875 6.394531 L 6.804688 6.40625 L 6.835938 6.449219 C 6.863281 6.484375 6.902344 6.539062 6.953125 6.605469 C 7.050781 6.734375 7.1875 6.914062 7.351562 7.121094 C 7.40625 7.1875 7.460938 7.261719 7.519531 7.332031 Z M 2 7.332031 "/>
</g>
</svg>
