<?xml version="1.0" encoding="UTF-8"?>
<svg xmlns="http://www.w3.org/2000/svg" xmlns:xlink="http://www.w3.org/1999/xlink" width="16px" height="16px" viewBox="0 0 16 16" version="1.1">
<g id="surface1">
<path style=" stroke:none;fill-rule:nonzero;fill:rgb(0%,0%,0%);fill-opacity:1;" d="M 8.667969 1.332031 C 6.824219 1.332031 5.332031 2.824219 5.332031 4.667969 C 5.332031 5.035156 5.632812 5.332031 6 5.332031 C 6.367188 5.332031 6.667969 5.035156 6.667969 4.667969 C 6.667969 3.5625 7.5625 2.667969 8.667969 2.667969 L 11.332031 2.667969 C 12.4375 2.667969 13.332031 3.5625 13.332031 4.667969 L 13.332031 11.332031 C 13.332031 12.4375 12.4375 13.332031 11.332031 13.332031 L 8.667969 13.332031 C 7.5625 13.332031 6.667969 12.4375 6.667969 11.332031 C 6.667969 10.964844 6.367188 10.667969 6 10.667969 C 5.632812 10.667969 5.332031 10.964844 5.332031 11.332031 C 5.332031 13.175781 6.824219 14.667969 8.667969 14.667969 L 11.332031 14.667969 C 13.175781 14.667969 14.667969 13.175781 14.667969 11.332031 L 14.667969 4.667969 C 14.667969 2.824219 13.175781 1.332031 11.332031 1.332031 Z M 8.667969 1.332031 "/>
<path style=" stroke:none;fill-rule:nonzero;fill:rgb(0%,0%,0%);fill-opacity:1;" d="M 9.332031 7.332031 C 9.703125 7.332031 10 7.632812 10 8 C 10 8.367188 9.703125 8.667969 9.332031 8.667969 Z M 9.332031 7.332031 "/>
<path style=" stroke:none;fill-rule:nonzero;fill:rgb(0%,0%,0%);fill-opacity:1;" d="M 3.8125 7.332031 C 3.871094 7.261719 3.929688 7.1875 3.980469 7.121094 C 4.144531 6.914062 4.285156 6.734375 4.382812 6.605469 C 4.429688 6.539062 4.46875 6.484375 4.496094 6.449219 L 4.527344 6.40625 L 4.535156 6.394531 L 4.539062 6.390625 C 4.539062 6.390625 4.539062 6.390625 4 6 L 4.539062 6.390625 C 4.753906 6.09375 4.691406 5.675781 4.390625 5.460938 C 4.09375 5.246094 3.675781 5.308594 3.460938 5.609375 L 3.457031 5.609375 L 3.453125 5.621094 L 3.425781 5.65625 C 3.398438 5.691406 3.363281 5.738281 3.316406 5.800781 C 3.222656 5.925781 3.09375 6.097656 2.9375 6.292969 C 2.621094 6.6875 2.226562 7.164062 1.863281 7.527344 L 1.390625 8 L 1.863281 8.472656 C 2.226562 8.835938 2.621094 9.3125 2.9375 9.707031 C 3.09375 9.902344 3.222656 10.074219 3.316406 10.199219 C 3.363281 10.261719 3.398438 10.308594 3.425781 10.34375 L 3.453125 10.378906 L 3.457031 10.390625 L 3.460938 10.390625 C 3.675781 10.6875 4.09375 10.753906 4.390625 10.539062 C 4.691406 10.324219 4.753906 9.90625 4.539062 9.609375 L 4 10 C 4.539062 9.609375 4.539062 9.609375 4.539062 9.609375 L 4.535156 9.605469 L 4.527344 9.59375 L 4.496094 9.550781 C 4.46875 9.511719 4.429688 9.460938 4.382812 9.394531 C 4.285156 9.265625 4.144531 9.085938 3.980469 8.878906 C 3.929688 8.8125 3.871094 8.738281 3.8125 8.667969 L 9.332031 8.667969 L 9.332031 7.332031 Z M 3.8125 7.332031 "/>
</g>
</svg>
