<?xml version="1.0" encoding="UTF-8"?>
<svg xmlns="http://www.w3.org/2000/svg" xmlns:xlink="http://www.w3.org/1999/xlink" width="30px" height="30px" viewBox="0 0 30 30" version="1.1">
<g id="surface1">
<path style=" stroke:none;fill-rule:evenodd;fill:rgb(96.862745%,96.470588%,73.333333%);fill-opacity:1;" d="M 8.117188 2.84375 L 21.882812 2.84375 C 24.796875 2.84375 27.15625 5.203125 27.15625 8.117188 L 27.15625 21.882812 C 27.15625 24.796875 24.796875 27.15625 21.882812 27.15625 L 8.117188 27.15625 C 5.203125 27.15625 2.84375 24.796875 2.84375 21.882812 L 2.84375 8.117188 C 2.84375 5.203125 5.203125 2.84375 8.113281 2.84375 Z M 8.117188 2.84375 "/>
<path style=" stroke:none;fill-rule:evenodd;fill:rgb(98.039216%,49.803922%,14.117647%);fill-opacity:1;" d="M 15 11.484375 L 16.757812 11.484375 L 16.757812 13.242188 L 15 13.242188 Z M 15 11.484375 "/>
<path style=" stroke:none;fill-rule:evenodd;fill:rgb(61.568627%,72.156863%,25.098039%);fill-opacity:1;" d="M 13.242188 11.484375 L 15 11.484375 L 15 13.242188 L 13.242188 13.242188 Z M 13.242188 11.484375 "/>
<path style=" stroke:none;fill-rule:evenodd;fill:rgb(67.843137%,78.039216%,32.156863%);fill-opacity:1;" d="M 11.484375 13.242188 L 13.242188 13.242188 L 13.242188 15 L 11.484375 15 Z M 11.484375 13.242188 "/>
<path style=" stroke:none;fill-rule:evenodd;fill:rgb(97.647059%,54.901961%,16.470588%);fill-opacity:1;" d="M 16.757812 13.242188 L 18.515625 13.242188 L 18.515625 15 L 16.757812 15 Z M 16.757812 13.242188 "/>
<path style=" stroke:none;fill-rule:evenodd;fill:rgb(67.843137%,78.039216%,32.156863%);fill-opacity:1;" d="M 9.726562 11.484375 L 11.484375 11.484375 L 11.484375 13.242188 L 9.726562 13.242188 Z M 9.726562 11.484375 "/>
<path style=" stroke:none;fill-rule:evenodd;fill:rgb(61.568627%,72.156863%,25.098039%);fill-opacity:1;" d="M 9.726562 7.96875 L 11.484375 7.96875 L 11.484375 11.484375 L 9.726562 11.484375 Z M 9.726562 7.96875 "/>
<path style=" stroke:none;fill-rule:evenodd;fill:rgb(55.294118%,62.352941%,16.078431%);fill-opacity:1;" d="M 13.242188 15 L 15 15 L 15 16.757812 L 13.242188 16.757812 Z M 13.242188 15 "/>
<path style=" stroke:none;fill-rule:evenodd;fill:rgb(24.705882%,40%,30.196078%);fill-opacity:1;" d="M 13.242188 16.757812 L 16.757812 16.757812 L 16.757812 22.03125 L 13.242188 22.03125 Z M 13.242188 16.757812 "/>
<path style=" stroke:none;fill-rule:evenodd;fill:rgb(61.568627%,72.156863%,25.098039%);fill-opacity:1;" d="M 11.484375 9.726562 L 13.242188 9.726562 L 13.242188 13.242188 L 11.484375 13.242188 Z M 11.484375 9.726562 "/>
<path style=" stroke:none;fill-rule:evenodd;fill:rgb(59.607843%,64.313725%,13.333333%);fill-opacity:1;" d="M 15 15 L 16.757812 15 L 16.757812 16.757812 L 15 16.757812 Z M 15 15 "/>
<path style=" stroke:none;fill-rule:evenodd;fill:rgb(59.215686%,60.784314%,11.764706%);fill-opacity:1;" d="M 13.242188 13.242188 L 16.757812 13.242188 L 16.757812 15 L 13.242188 15 Z M 13.242188 13.242188 "/>
<path style=" stroke:none;fill-rule:evenodd;fill:rgb(87.843137%,89.803922%,54.901961%);fill-opacity:1;" d="M 7.96875 9.726562 L 9.726562 9.726562 L 9.726562 11.484375 L 7.96875 11.484375 Z M 7.96875 9.726562 "/>
<path style=" stroke:none;fill-rule:evenodd;fill:rgb(98.039216%,49.803922%,14.117647%);fill-opacity:1;" d="M 16.757812 9.726562 L 18.515625 9.726562 L 18.515625 13.242188 L 16.757812 13.242188 Z M 16.757812 9.726562 "/>
<path style=" stroke:none;fill-rule:evenodd;fill:rgb(97.647059%,54.901961%,16.470588%);fill-opacity:1;" d="M 18.515625 11.484375 L 20.273438 11.484375 L 20.273438 13.242188 L 18.515625 13.242188 Z M 18.515625 11.484375 "/>
<path style=" stroke:none;fill-rule:evenodd;fill:rgb(98.039216%,49.803922%,14.117647%);fill-opacity:1;" d="M 18.515625 8.027344 L 20.273438 8.027344 L 20.273438 11.542969 L 18.515625 11.542969 Z M 18.515625 8.027344 "/>
<path style=" stroke:none;fill-rule:evenodd;fill:rgb(97.647059%,83.529412%,38.823529%);fill-opacity:1;" d="M 20.273438 9.785156 L 22.03125 9.785156 L 22.03125 11.542969 L 20.273438 11.542969 Z M 20.273438 9.785156 "/>
</g>
</svg>
