<?xml version="1.0" encoding="UTF-8"?>
<svg xmlns="http://www.w3.org/2000/svg" xmlns:xlink="http://www.w3.org/1999/xlink" width="16px" height="16px" viewBox="0 0 16 16" version="1.1">
<g id="surface1">
<path style="fill:none;stroke-width:2;stroke-linecap:round;stroke-linejoin:round;stroke:rgb(0%,0%,0%);stroke-opacity:1;stroke-miterlimit:4;" d="M 19.001953 19.998047 L 19.998047 19.998047 M 16.001953 19.998047 L 13.998047 19.998047 L 13.998047 16.998047 M 16.998047 16.998047 L 19.998047 16.998047 L 19.998047 13.998047 L 19.001953 13.998047 M 13.998047 13.998047 L 16.001953 13.998047 M 4.001953 16.998047 C 4.001953 16.066406 4.001953 15.603516 4.154297 15.234375 C 4.353516 14.742187 4.746094 14.355469 5.232422 14.150391 C 5.601562 13.998047 6.070312 13.998047 7.001953 13.998047 C 7.933594 13.998047 8.396484 13.998047 8.765625 14.150391 C 9.257812 14.355469 9.644531 14.742187 9.849609 15.234375 C 10.001953 15.603516 10.001953 16.066406 10.001953 16.998047 C 10.001953 17.929687 10.001953 18.398437 9.849609 18.767578 C 9.644531 19.253906 9.257812 19.646484 8.765625 19.845703 C 8.396484 19.998047 7.933594 19.998047 7.001953 19.998047 C 6.070312 19.998047 5.601562 19.998047 5.232422 19.845703 C 4.746094 19.646484 4.353516 19.253906 4.154297 18.767578 C 4.001953 18.398437 4.001953 17.929687 4.001953 16.998047 Z M 13.998047 7.001953 C 13.998047 6.070312 13.998047 5.601562 14.150391 5.232422 C 14.355469 4.746094 14.742187 4.353516 15.234375 4.154297 C 15.603516 4.001953 16.066406 4.001953 16.998047 4.001953 C 17.929687 4.001953 18.398437 4.001953 18.767578 4.154297 C 19.253906 4.353516 19.646484 4.746094 19.845703 5.232422 C 19.998047 5.601562 19.998047 6.070312 19.998047 7.001953 C 19.998047 7.933594 19.998047 8.396484 19.845703 8.765625 C 19.646484 9.257812 19.253906 9.644531 18.767578 9.849609 C 18.398437 10.001953 17.929687 10.001953 16.998047 10.001953 C 16.066406 10.001953 15.603516 10.001953 15.234375 9.849609 C 14.742187 9.644531 14.355469 9.257812 14.150391 8.765625 C 13.998047 8.396484 13.998047 7.933594 13.998047 7.001953 Z M 4.001953 7.001953 C 4.001953 6.070312 4.001953 5.601562 4.154297 5.232422 C 4.353516 4.746094 4.746094 4.353516 5.232422 4.154297 C 5.601562 4.001953 6.070312 4.001953 7.001953 4.001953 C 7.933594 4.001953 8.396484 4.001953 8.765625 4.154297 C 9.257812 4.353516 9.644531 4.746094 9.849609 5.232422 C 10.001953 5.601562 10.001953 6.070312 10.001953 7.001953 C 10.001953 7.933594 10.001953 8.396484 9.849609 8.765625 C 9.644531 9.257812 9.257812 9.644531 8.765625 9.849609 C 8.396484 10.001953 7.933594 10.001953 7.001953 10.001953 C 6.070312 10.001953 5.601562 10.001953 5.232422 9.849609 C 4.746094 9.644531 4.353516 9.257812 4.154297 8.765625 C 4.001953 8.396484 4.001953 7.933594 4.001953 7.001953 Z M 4.001953 7.001953 " transform="matrix(0.666667,0,0,0.666667,0,0)"/>
</g>
</svg>
